<svg width="261" height="261" viewBox="0 0 261 261" fill="none" xmlns="http://www.w3.org/2000/svg">
<path d="M11.2148 6.83098C9.07381 7.54465 7.1367 9.70606 6.68811 11.8879C5.81131 16.0883 10.0118 20.2888 14.2122 19.412C17.3728 18.7595 19.8197 15.5378 19.5138 12.4996C19.2895 10.3586 17.6787 8.15637 15.6396 7.15723C14.3958 6.5659 12.479 6.42316 11.2148 6.83098Z" fill="#444559" fill-opacity="0.8"/>
<path d="M37.3148 6.83086C34.2359 7.85039 32.156 11.2352 32.7881 14.2123C33.2979 16.6387 35.5612 18.9021 37.9673 19.4119C41.9231 20.2479 46.0216 16.5164 45.6138 12.4995C45.3895 10.3584 43.7787 8.15625 41.7396 7.15711C40.4958 6.56578 38.5791 6.42304 37.3148 6.83086Z" fill="#444559" fill-opacity="0.8"/>
<path d="M63.4148 6.83098C61.2738 7.54465 59.3367 9.70606 58.8881 11.8879C58.0113 16.0883 62.2118 20.2888 66.4123 19.412C69.5728 18.7595 72.0197 15.5378 71.7138 12.4996C71.4895 10.3586 69.8787 8.15637 67.8396 7.15723C66.5958 6.5659 64.6791 6.42316 63.4148 6.83098Z" fill="#444559" fill-opacity="0.8"/>
<path d="M89.5148 6.83098C87.3738 7.54465 85.4367 9.70606 84.9881 11.8879C84.1113 16.0883 88.3118 20.2888 92.5122 19.412C95.6728 18.7595 98.1197 15.5378 97.8138 12.4996C97.5895 10.3586 95.9786 8.15637 93.9396 7.15723C92.6958 6.5659 90.779 6.42316 89.5148 6.83098Z" fill="#444559" fill-opacity="0.8"/>
<path d="M115.615 6.83098C113.474 7.54465 111.537 9.70606 111.088 11.8879C110.211 16.0883 114.412 20.2888 118.612 19.412C121.773 18.7595 124.22 15.5378 123.914 12.4996C123.69 10.3586 122.079 8.15637 120.04 7.15723C118.796 6.5659 116.879 6.42316 115.615 6.83098Z" fill="#444559" fill-opacity="0.8"/>
<path d="M141.715 6.83098C139.574 7.54465 137.637 9.70606 137.188 11.8879C136.311 16.0883 140.512 20.2888 144.712 19.412C147.873 18.7595 150.32 15.5378 150.014 12.4996C149.79 10.3586 148.179 8.15637 146.14 7.15723C144.896 6.5659 142.979 6.42316 141.715 6.83098Z" fill="#444559" fill-opacity="0.8"/>
<path d="M167.815 6.83098C165.674 7.54465 163.737 9.70606 163.288 11.8879C162.411 16.0883 166.612 20.2888 170.812 19.412C173.973 18.7595 176.42 15.5378 176.114 12.4996C175.889 10.3586 174.279 8.15637 172.24 7.15723C170.996 6.5659 169.079 6.42316 167.815 6.83098Z" fill="#444559" fill-opacity="0.8"/>
<path d="M193.915 6.83098C191.774 7.54465 189.837 9.70606 189.388 11.8879C188.511 16.0883 192.712 20.2888 196.912 19.412C200.073 18.7595 202.52 15.5378 202.214 12.4996C201.99 10.3586 200.379 8.15637 198.34 7.15723C197.096 6.5659 195.179 6.42316 193.915 6.83098Z" fill="#444559" fill-opacity="0.8"/>
<path d="M220.015 6.83088C217.874 7.54456 215.937 9.70596 215.488 11.8878C214.978 14.2735 216.141 16.8631 218.384 18.3924C220.565 19.9013 223.053 19.9217 225.255 18.4535C228.864 16.0474 229.354 11.5615 226.336 8.56409C224.603 6.81049 222.115 6.1376 220.015 6.83088Z" fill="#444559" fill-opacity="0.8"/>
<path d="M246.115 6.83088C243.974 7.54456 242.037 9.70596 241.588 11.8878C241.078 14.2735 242.241 16.8631 244.484 18.3924C246.665 19.9013 249.153 19.9217 251.355 18.4535C254.964 16.0474 255.454 11.5615 252.436 8.56409C250.703 6.81049 248.215 6.1376 246.115 6.83088Z" fill="#444559" fill-opacity="0.8"/>
<path d="M11.2148 32.9308C9.07381 33.6445 7.1367 35.8059 6.68811 37.9877C5.81131 42.1882 10.0118 46.3886 14.2122 45.5118C17.3728 44.8593 19.8197 41.6376 19.5138 38.5994C19.2895 36.4584 17.6787 34.2562 15.6396 33.2571C14.3958 32.6658 12.479 32.523 11.2148 32.9308Z" fill="#444559" fill-opacity="0.8"/>
<path d="M37.3148 32.9308C34.2359 33.9504 32.156 37.3352 32.7881 40.3122C33.2979 42.7387 35.5612 45.0021 37.9673 45.5118C41.9231 46.3479 46.0216 42.6164 45.6138 38.5994C45.3895 36.4584 43.7787 34.2562 41.7396 33.2571C40.4958 32.6658 38.5791 32.523 37.3148 32.9308Z" fill="#444559" fill-opacity="0.8"/>
<path d="M63.4148 32.9308C61.2738 33.6445 59.3367 35.8059 58.8881 37.9877C58.0113 42.1882 62.2118 46.3886 66.4123 45.5118C69.5728 44.8593 72.0197 41.6376 71.7138 38.5994C71.4895 36.4584 69.8787 34.2562 67.8396 33.2571C66.5958 32.6658 64.6791 32.523 63.4148 32.9308Z" fill="#444559" fill-opacity="0.8"/>
<path d="M89.5148 32.9308C87.3738 33.6445 85.4367 35.8059 84.9881 37.9877C84.1113 42.1882 88.3118 46.3886 92.5122 45.5118C95.6728 44.8593 98.1197 41.6376 97.8138 38.5994C97.5895 36.4584 95.9786 34.2562 93.9396 33.2571C92.6958 32.6658 90.779 32.523 89.5148 32.9308Z" fill="#444559" fill-opacity="0.8"/>
<path d="M115.615 32.9308C113.474 33.6445 111.537 35.8059 111.088 37.9877C110.211 42.1882 114.412 46.3886 118.612 45.5118C121.773 44.8593 124.22 41.6376 123.914 38.5994C123.69 36.4584 122.079 34.2562 120.04 33.2571C118.796 32.6658 116.879 32.523 115.615 32.9308Z" fill="#444559" fill-opacity="0.8"/>
<path d="M141.715 32.9308C139.574 33.6445 137.637 35.8059 137.188 37.9877C136.311 42.1882 140.512 46.3886 144.712 45.5118C147.873 44.8593 150.32 41.6376 150.014 38.5994C149.79 36.4584 148.179 34.2562 146.14 33.2571C144.896 32.6658 142.979 32.523 141.715 32.9308Z" fill="#444559" fill-opacity="0.8"/>
<path d="M167.815 32.9308C165.674 33.6445 163.737 35.8059 163.288 37.9877C162.411 42.1882 166.612 46.3886 170.812 45.5118C173.973 44.8593 176.42 41.6376 176.114 38.5994C175.889 36.4584 174.279 34.2562 172.24 33.2571C170.996 32.6658 169.079 32.523 167.815 32.9308Z" fill="#444559" fill-opacity="0.8"/>
<path d="M193.915 32.9308C191.774 33.6445 189.837 35.8059 189.388 37.9877C188.511 42.1882 192.712 46.3886 196.912 45.5118C200.073 44.8593 202.52 41.6376 202.214 38.5994C201.99 36.4584 200.379 34.2562 198.34 33.2571C197.096 32.6658 195.179 32.523 193.915 32.9308Z" fill="#444559" fill-opacity="0.8"/>
<path d="M220.015 32.9309C217.874 33.6445 215.937 35.8059 215.488 37.9877C214.978 40.3734 216.141 42.963 218.384 44.4923C220.565 46.0013 223.053 46.0216 225.255 44.5535C228.864 42.1474 229.354 37.6615 226.336 34.6641C224.603 32.9105 222.115 32.2376 220.015 32.9309Z" fill="#444559" fill-opacity="0.8"/>
<path d="M246.115 32.9309C243.974 33.6445 242.037 35.8059 241.588 37.9877C241.078 40.3734 242.241 42.963 244.484 44.4923C246.665 46.0013 249.153 46.0216 251.355 44.5535C254.964 42.1474 255.454 37.6615 252.436 34.6641C250.703 32.9105 248.215 32.2376 246.115 32.9309Z" fill="#444559" fill-opacity="0.8"/>
<path d="M11.2148 59.0309C9.07381 59.7446 7.1367 61.906 6.68811 64.0878C5.81131 68.2883 10.0118 72.4887 14.2122 71.6119C17.3728 70.9594 19.8197 67.7377 19.5138 64.6995C19.2895 62.5585 17.6787 60.3563 15.6396 59.3572C14.3958 58.7659 12.479 58.6231 11.2148 59.0309Z" fill="#444559" fill-opacity="0.8"/>
<path d="M37.3148 59.0309C35.1738 59.7446 33.2367 61.906 32.7881 64.0878C31.9113 68.2883 36.1118 72.4887 40.3122 71.6119C43.4728 70.9594 45.9196 67.7377 45.6138 64.6995C45.3895 62.5585 43.7786 60.3563 41.7396 59.3572C40.4957 58.7659 38.579 58.6231 37.3148 59.0309Z" fill="#444559" fill-opacity="0.8"/>
<path d="M63.4148 59.0309C61.2738 59.7446 59.3367 61.906 58.8881 64.0878C58.0113 68.2883 62.2118 72.4887 66.4123 71.6119C69.5728 70.9594 72.0197 67.7377 71.7138 64.6995C71.4895 62.5585 69.8787 60.3563 67.8396 59.3572C66.5958 58.7659 64.6791 58.6231 63.4148 59.0309Z" fill="#444559" fill-opacity="0.8"/>
<path d="M89.5148 59.0309C87.3738 59.7446 85.4367 61.906 84.9881 64.0878C84.1113 68.2883 88.3118 72.4887 92.5122 71.6119C95.6728 70.9594 98.1197 67.7377 97.8138 64.6995C97.5895 62.5585 95.9786 60.3563 93.9396 59.3572C92.6958 58.7659 90.779 58.6231 89.5148 59.0309Z" fill="#444559" fill-opacity="0.8"/>
<path d="M115.615 59.0309C113.474 59.7446 111.537 61.906 111.088 64.0878C110.211 68.2883 114.412 72.4887 118.612 71.6119C121.773 70.9594 124.22 67.7377 123.914 64.6995C123.69 62.5585 122.079 60.3563 120.04 59.3572C118.796 58.7659 116.879 58.6231 115.615 59.0309Z" fill="#444559" fill-opacity="0.8"/>
<path d="M141.715 59.0309C139.574 59.7446 137.637 61.906 137.188 64.0878C136.311 68.2883 140.512 72.4887 144.712 71.6119C147.873 70.9594 150.32 67.7377 150.014 64.6995C149.79 62.5585 148.179 60.3563 146.14 59.3572C144.896 58.7659 142.979 58.6231 141.715 59.0309Z" fill="#444559" fill-opacity="0.8"/>
<path d="M167.815 59.0309C165.674 59.7446 163.737 61.906 163.288 64.0878C162.411 68.2883 166.612 72.4887 170.812 71.6119C173.973 70.9594 176.42 67.7377 176.114 64.6995C175.889 62.5585 174.279 60.3563 172.24 59.3572C170.996 58.7659 169.079 58.6231 167.815 59.0309Z" fill="#444559" fill-opacity="0.8"/>
<path d="M193.915 59.0309C191.774 59.7446 189.837 61.906 189.388 64.0878C188.511 68.2883 192.712 72.4887 196.912 71.6119C200.073 70.9594 202.52 67.7377 202.214 64.6995C201.99 62.5585 200.379 60.3563 198.34 59.3572C197.096 58.7659 195.179 58.6231 193.915 59.0309Z" fill="#444559" fill-opacity="0.8"/>
<path d="M220.015 59.0309C217.874 59.7446 215.937 61.906 215.488 64.0878C214.611 68.2883 218.812 72.4887 223.012 71.6119C226.173 70.9594 228.62 67.7377 228.314 64.6995C228.09 62.5585 226.479 60.3563 224.44 59.3572C223.196 58.7659 221.279 58.6231 220.015 59.0309Z" fill="#444559" fill-opacity="0.8"/>
<path d="M246.115 59.0309C243.974 59.7446 242.037 61.906 241.588 64.0878C240.711 68.2883 244.912 72.4887 249.112 71.6119C252.273 70.9594 254.72 67.7377 254.414 64.6995C254.19 62.5585 252.579 60.3563 250.54 59.3572C249.296 58.7659 247.379 58.6231 246.115 59.0309Z" fill="#444559" fill-opacity="0.8"/>
<path d="M11.2148 85.1309C9.07381 85.8446 7.1367 88.006 6.68811 90.1878C5.81131 94.3882 10.0118 98.5887 14.2122 97.7119C17.3728 97.0594 19.8197 93.8377 19.5138 90.7995C19.2895 88.6585 17.6787 86.4563 15.6396 85.4572C14.3958 84.8658 12.479 84.7231 11.2148 85.1309Z" fill="#444559" fill-opacity="0.8"/>
<path d="M37.3148 85.1309C35.1738 85.8446 33.2367 88.006 32.7881 90.1878C31.9113 94.3882 36.1118 98.5887 40.3122 97.7119C43.4728 97.0594 45.9196 93.8377 45.6138 90.7995C45.3895 88.6585 43.7786 86.4563 41.7396 85.4572C40.4957 84.8658 38.579 84.7231 37.3148 85.1309Z" fill="#444559" fill-opacity="0.8"/>
<path d="M63.4148 85.1309C61.2738 85.8446 59.3367 88.006 58.8881 90.1878C58.0113 94.3882 62.2118 98.5887 66.4123 97.7119C69.5728 97.0594 72.0197 93.8377 71.7138 90.7995C71.4895 88.6585 69.8787 86.4563 67.8396 85.4572C66.5958 84.8658 64.6791 84.7231 63.4148 85.1309Z" fill="#444559" fill-opacity="0.8"/>
<path d="M89.5148 85.1309C87.3738 85.8446 85.4367 88.006 84.9881 90.1878C84.1113 94.3882 88.3118 98.5887 92.5122 97.7119C95.6728 97.0594 98.1197 93.8377 97.8138 90.7995C97.5895 88.6585 95.9786 86.4563 93.9396 85.4572C92.6958 84.8658 90.779 84.7231 89.5148 85.1309Z" fill="#444559" fill-opacity="0.8"/>
<path d="M115.615 85.1309C113.474 85.8446 111.537 88.006 111.088 90.1878C110.211 94.3882 114.412 98.5887 118.612 97.7119C121.773 97.0594 124.22 93.8377 123.914 90.7995C123.69 88.6585 122.079 86.4563 120.04 85.4572C118.796 84.8658 116.879 84.7231 115.615 85.1309Z" fill="#444559" fill-opacity="0.8"/>
<path d="M141.715 85.1309C139.574 85.8446 137.637 88.006 137.188 90.1878C136.311 94.3882 140.512 98.5887 144.712 97.7119C147.873 97.0594 150.32 93.8377 150.014 90.7995C149.79 88.6585 148.179 86.4563 146.14 85.4572C144.896 84.8658 142.979 84.7231 141.715 85.1309Z" fill="#444559" fill-opacity="0.8"/>
<path d="M167.815 85.1309C165.674 85.8446 163.737 88.006 163.288 90.1878C162.411 94.3882 166.612 98.5887 170.812 97.7119C173.973 97.0594 176.42 93.8377 176.114 90.7995C175.889 88.6585 174.279 86.4563 172.24 85.4572C170.996 84.8658 169.079 84.7231 167.815 85.1309Z" fill="#444559" fill-opacity="0.8"/>
<path d="M193.915 85.1309C191.774 85.8446 189.837 88.006 189.388 90.1878C188.511 94.3882 192.712 98.5887 196.912 97.7119C200.073 97.0594 202.52 93.8377 202.214 90.7995C201.99 88.6585 200.379 86.4563 198.34 85.4572C197.096 84.8658 195.179 84.7231 193.915 85.1309Z" fill="#444559" fill-opacity="0.8"/>
<path d="M220.015 85.1309C217.874 85.8446 215.937 88.006 215.488 90.1878C214.611 94.3882 218.812 98.5887 223.012 97.7119C226.173 97.0594 228.62 93.8377 228.314 90.7995C228.09 88.6585 226.479 86.4563 224.44 85.4572C223.196 84.8658 221.279 84.7231 220.015 85.1309Z" fill="#444559" fill-opacity="0.8"/>
<path d="M246.115 85.1309C243.974 85.8446 242.037 88.006 241.588 90.1878C240.711 94.3882 244.912 98.5887 249.112 97.7119C252.273 97.0594 254.72 93.8377 254.414 90.7995C254.19 88.6585 252.579 86.4563 250.54 85.4572C249.296 84.8658 247.379 84.7231 246.115 85.1309Z" fill="#444559" fill-opacity="0.8"/>
<path d="M11.2148 111.231C9.07381 111.945 7.1367 114.106 6.68811 116.288C5.81131 120.488 10.0118 124.689 14.2122 123.812C17.3728 123.159 19.8197 119.938 19.5138 116.899C19.2895 114.758 17.6787 112.556 15.6396 111.557C14.3958 110.966 12.479 110.823 11.2148 111.231Z" fill="#444559" fill-opacity="0.8"/>
<path d="M37.3148 111.231C35.1738 111.945 33.2367 114.106 32.7881 116.288C31.9113 120.488 36.1118 124.689 40.3122 123.812C43.4728 123.159 45.9196 119.938 45.6138 116.899C45.3895 114.758 43.7786 112.556 41.7396 111.557C40.4957 110.966 38.579 110.823 37.3148 111.231Z" fill="#444559" fill-opacity="0.8"/>
<path d="M63.4148 111.231C61.2738 111.945 59.3367 114.106 58.8881 116.288C58.0113 120.488 62.2118 124.689 66.4123 123.812C69.5728 123.159 72.0197 119.938 71.7138 116.899C71.4895 114.758 69.8787 112.556 67.8396 111.557C66.5958 110.966 64.6791 110.823 63.4148 111.231Z" fill="#444559" fill-opacity="0.8"/>
<path d="M89.5148 111.231C87.3738 111.945 85.4367 114.106 84.9881 116.288C84.1113 120.488 88.3118 124.689 92.5122 123.812C95.6728 123.159 98.1197 119.938 97.8138 116.899C97.5895 114.758 95.9786 112.556 93.9396 111.557C92.6958 110.966 90.779 110.823 89.5148 111.231Z" fill="#444559" fill-opacity="0.8"/>
<path d="M115.615 111.231C113.474 111.945 111.537 114.106 111.088 116.288C110.211 120.488 114.412 124.689 118.612 123.812C121.773 123.159 124.22 119.938 123.914 116.899C123.69 114.758 122.079 112.556 120.04 111.557C118.796 110.966 116.879 110.823 115.615 111.231Z" fill="#444559" fill-opacity="0.8"/>
<path d="M141.715 111.231C139.574 111.945 137.637 114.106 137.188 116.288C136.311 120.488 140.512 124.689 144.712 123.812C147.873 123.159 150.32 119.938 150.014 116.899C149.79 114.758 148.179 112.556 146.14 111.557C144.896 110.966 142.979 110.823 141.715 111.231Z" fill="#444559" fill-opacity="0.8"/>
<path d="M167.815 111.231C165.674 111.945 163.737 114.106 163.288 116.288C162.411 120.488 166.612 124.689 170.812 123.812C173.973 123.159 176.42 119.938 176.114 116.899C175.889 114.758 174.279 112.556 172.24 111.557C170.996 110.966 169.079 110.823 167.815 111.231Z" fill="#444559" fill-opacity="0.8"/>
<path d="M193.915 111.231C191.774 111.945 189.837 114.106 189.388 116.288C188.511 120.488 192.712 124.689 196.912 123.812C200.073 123.159 202.52 119.938 202.214 116.899C201.99 114.758 200.379 112.556 198.34 111.557C197.096 110.966 195.179 110.823 193.915 111.231Z" fill="#444559" fill-opacity="0.8"/>
<path d="M220.015 111.231C217.874 111.945 215.937 114.106 215.488 116.288C214.611 120.488 218.812 124.689 223.012 123.812C226.173 123.159 228.62 119.938 228.314 116.899C228.09 114.758 226.479 112.556 224.44 111.557C223.196 110.966 221.279 110.823 220.015 111.231Z" fill="#444559" fill-opacity="0.8"/>
<path d="M246.115 111.231C243.974 111.945 242.037 114.106 241.588 116.288C240.711 120.488 244.912 124.689 249.112 123.812C252.273 123.159 254.72 119.938 254.414 116.899C254.19 114.758 252.579 112.556 250.54 111.557C249.296 110.966 247.379 110.823 246.115 111.231Z" fill="#444559" fill-opacity="0.8"/>
<path d="M11.2148 137.331C9.07381 138.045 7.1367 140.206 6.68811 142.388C5.81131 146.588 10.0118 150.789 14.2122 149.912C17.3728 149.259 19.8197 146.038 19.5138 142.999C19.2895 140.858 17.6787 138.656 15.6396 137.657C14.3958 137.066 12.479 136.923 11.2148 137.331Z" fill="#444559" fill-opacity="0.8"/>
<path d="M37.3148 137.331C35.1738 138.045 33.2367 140.206 32.7881 142.388C31.9113 146.588 36.1118 150.789 40.3122 149.912C43.4728 149.259 45.9196 146.038 45.6138 142.999C45.3895 140.858 43.7786 138.656 41.7396 137.657C40.4957 137.066 38.579 136.923 37.3148 137.331Z" fill="#444559" fill-opacity="0.8"/>
<path d="M63.4148 137.331C61.2738 138.045 59.3367 140.206 58.8881 142.388C58.0113 146.588 62.2118 150.789 66.4123 149.912C69.5728 149.259 72.0197 146.038 71.7138 142.999C71.4895 140.858 69.8787 138.656 67.8396 137.657C66.5958 137.066 64.6791 136.923 63.4148 137.331Z" fill="#444559" fill-opacity="0.8"/>
<path d="M89.5148 137.331C87.3738 138.045 85.4367 140.206 84.9881 142.388C84.1113 146.588 88.3118 150.789 92.5122 149.912C95.6728 149.259 98.1197 146.038 97.8138 142.999C97.5895 140.858 95.9786 138.656 93.9396 137.657C92.6958 137.066 90.779 136.923 89.5148 137.331Z" fill="#444559" fill-opacity="0.8"/>
<path d="M115.615 137.331C113.474 138.045 111.537 140.206 111.088 142.388C110.211 146.588 114.412 150.789 118.612 149.912C121.773 149.259 124.22 146.038 123.914 142.999C123.69 140.858 122.079 138.656 120.04 137.657C118.796 137.066 116.879 136.923 115.615 137.331Z" fill="#444559" fill-opacity="0.8"/>
<path d="M141.715 137.331C139.574 138.045 137.637 140.206 137.188 142.388C136.311 146.588 140.512 150.789 144.712 149.912C147.873 149.259 150.32 146.038 150.014 142.999C149.79 140.858 148.179 138.656 146.14 137.657C144.896 137.066 142.979 136.923 141.715 137.331Z" fill="#444559" fill-opacity="0.8"/>
<path d="M167.815 137.331C165.674 138.045 163.737 140.206 163.288 142.388C162.411 146.588 166.612 150.789 170.812 149.912C173.973 149.259 176.42 146.038 176.114 142.999C175.889 140.858 174.279 138.656 172.24 137.657C170.996 137.066 169.079 136.923 167.815 137.331Z" fill="#444559" fill-opacity="0.8"/>
<path d="M193.915 137.331C191.774 138.045 189.837 140.206 189.388 142.388C188.511 146.588 192.712 150.789 196.912 149.912C200.073 149.259 202.52 146.038 202.214 142.999C201.99 140.858 200.379 138.656 198.34 137.657C197.096 137.066 195.179 136.923 193.915 137.331Z" fill="#444559" fill-opacity="0.8"/>
<path d="M220.015 137.331C217.874 138.045 215.937 140.206 215.488 142.388C214.611 146.588 218.812 150.789 223.012 149.912C226.173 149.259 228.62 146.038 228.314 142.999C228.09 140.858 226.479 138.656 224.44 137.657C223.196 137.066 221.279 136.923 220.015 137.331Z" fill="#444559" fill-opacity="0.8"/>
<path d="M246.115 137.331C243.974 138.045 242.037 140.206 241.588 142.388C240.711 146.588 244.912 150.789 249.112 149.912C252.273 149.259 254.72 146.038 254.414 142.999C254.19 140.858 252.579 138.656 250.54 137.657C249.296 137.066 247.379 136.923 246.115 137.331Z" fill="#444559" fill-opacity="0.8"/>
<path d="M11.2148 163.431C9.07381 164.145 7.1367 166.306 6.68811 168.488C5.81131 172.688 10.0118 176.889 14.2122 176.012C17.3728 175.359 19.8197 172.138 19.5138 169.099C19.2895 166.958 17.6787 164.756 15.6396 163.757C14.3958 163.166 12.479 163.023 11.2148 163.431Z" fill="#444559" fill-opacity="0.8"/>
<path d="M37.3148 163.431C35.1738 164.145 33.2367 166.306 32.7881 168.488C31.9113 172.688 36.1118 176.889 40.3122 176.012C43.4728 175.359 45.9196 172.138 45.6138 169.099C45.3895 166.958 43.7786 164.756 41.7396 163.757C40.4957 163.166 38.579 163.023 37.3148 163.431Z" fill="#444559" fill-opacity="0.8"/>
<path d="M63.4148 163.431C61.2738 164.145 59.3367 166.306 58.8881 168.488C58.3783 170.873 59.5406 173.463 61.7836 174.992C63.9654 176.501 66.453 176.522 68.6552 175.054C72.2643 172.647 72.7537 168.161 69.7359 165.164C68.0027 163.41 65.515 162.738 63.4148 163.431Z" fill="#444559" fill-opacity="0.8"/>
<path d="M89.5149 163.431C87.3738 164.145 85.4367 166.306 84.9881 168.488C84.4784 170.873 85.6406 173.463 87.8836 174.992C90.0654 176.501 92.5531 176.522 94.7552 175.054C98.3644 172.647 98.8538 168.161 95.8359 165.164C94.1027 163.41 91.6151 162.738 89.5149 163.431Z" fill="#444559" fill-opacity="0.8"/>
<path d="M115.615 163.431C112.536 164.45 110.456 167.835 111.088 170.812C111.598 173.239 113.861 175.502 116.288 176.012C120.223 176.848 124.322 173.116 123.914 169.099C123.69 166.958 122.079 164.756 120.04 163.757C118.796 163.166 116.879 163.023 115.615 163.431Z" fill="#444559" fill-opacity="0.8"/>
<path d="M141.715 163.431C138.636 164.45 136.556 167.835 137.188 170.812C137.698 173.239 139.961 175.502 142.388 176.012C146.323 176.848 150.422 173.116 150.014 169.099C149.789 166.958 148.179 164.756 146.14 163.757C144.896 163.166 142.979 163.023 141.715 163.431Z" fill="#444559" fill-opacity="0.8"/>
<path d="M167.815 163.431C164.736 164.45 162.656 167.835 163.288 170.812C163.798 173.239 166.061 175.502 168.488 176.012C172.423 176.848 176.522 173.116 176.114 169.099C175.89 166.958 174.279 164.756 172.24 163.757C170.996 163.166 169.079 163.023 167.815 163.431Z" fill="#444559" fill-opacity="0.8"/>
<path d="M193.915 163.431C190.836 164.45 188.756 167.835 189.388 170.812C189.898 173.239 192.161 175.502 194.588 176.012C198.523 176.848 202.622 173.116 202.214 169.099C201.989 166.958 200.379 164.756 198.34 163.757C197.096 163.166 195.179 163.023 193.915 163.431Z" fill="#444559" fill-opacity="0.8"/>
<path d="M220.015 163.431C217.874 164.145 215.937 166.306 215.488 168.488C214.611 172.688 218.812 176.889 223.012 176.012C226.173 175.359 228.62 172.138 228.314 169.099C228.09 166.958 226.479 164.756 224.44 163.757C223.196 163.166 221.279 163.023 220.015 163.431Z" fill="#444559" fill-opacity="0.8"/>
<path d="M246.115 163.431C243.974 164.145 242.037 166.306 241.588 168.488C240.711 172.688 244.912 176.889 249.112 176.012C252.273 175.359 254.72 172.138 254.414 169.099C254.19 166.958 252.579 164.756 250.54 163.757C249.296 163.166 247.379 163.023 246.115 163.431Z" fill="#444559" fill-opacity="0.8"/>
<path d="M11.2148 189.531C9.07381 190.245 7.1367 192.406 6.68811 194.588C5.81131 198.788 10.0118 202.989 14.2122 202.112C17.3728 201.459 19.8197 198.238 19.5138 195.2C19.2895 193.059 17.6787 190.856 15.6396 189.857C14.3958 189.266 12.479 189.123 11.2148 189.531Z" fill="#444559" fill-opacity="0.8"/>
<path d="M37.3148 189.531C35.1738 190.245 33.2367 192.406 32.7881 194.588C31.9113 198.788 36.1118 202.989 40.3122 202.112C43.4728 201.459 45.9196 198.238 45.6138 195.2C45.3895 193.059 43.7786 190.856 41.7396 189.857C40.4957 189.266 38.579 189.123 37.3148 189.531Z" fill="#444559" fill-opacity="0.8"/>
<path d="M63.4148 189.531C61.2738 190.245 59.3367 192.406 58.8881 194.588C58.3783 196.973 59.5406 199.563 61.7836 201.092C63.9654 202.601 66.453 202.622 68.6552 201.153C72.2643 198.747 72.7537 194.261 69.7359 191.264C68.0027 189.51 65.515 188.838 63.4148 189.531Z" fill="#444559" fill-opacity="0.8"/>
<path d="M89.5149 189.531C87.3738 190.245 85.4367 192.406 84.9881 194.588C84.4784 196.973 85.6406 199.563 87.8836 201.092C90.0654 202.601 92.5531 202.622 94.7552 201.153C98.3644 198.747 98.8538 194.261 95.8359 191.264C94.1027 189.51 91.6151 188.838 89.5149 189.531Z" fill="#444559" fill-opacity="0.8"/>
<path d="M115.615 189.531C112.536 190.55 110.456 193.935 111.088 196.912C111.598 199.339 113.861 201.602 116.288 202.112C120.223 202.948 124.322 199.216 123.914 195.2C123.69 193.059 122.079 190.856 120.04 189.857C118.796 189.266 116.879 189.123 115.615 189.531Z" fill="#444559" fill-opacity="0.8"/>
<path d="M141.715 189.531C138.636 190.55 136.556 193.935 137.188 196.912C137.698 199.339 139.961 201.602 142.388 202.112C146.323 202.948 150.422 199.216 150.014 195.2C149.789 193.059 148.179 190.856 146.14 189.857C144.896 189.266 142.979 189.123 141.715 189.531Z" fill="#444559" fill-opacity="0.8"/>
<path d="M167.815 189.531C164.736 190.55 162.656 193.935 163.288 196.912C163.798 199.339 166.061 201.602 168.488 202.112C172.423 202.948 176.522 199.216 176.114 195.2C175.89 193.059 174.279 190.856 172.24 189.857C170.996 189.266 169.079 189.123 167.815 189.531Z" fill="#444559" fill-opacity="0.8"/>
<path d="M193.915 189.531C190.836 190.55 188.756 193.935 189.388 196.912C189.898 199.339 192.161 201.602 194.588 202.112C198.523 202.948 202.622 199.216 202.214 195.2C201.989 193.059 200.379 190.856 198.34 189.857C197.096 189.266 195.179 189.123 193.915 189.531Z" fill="#444559" fill-opacity="0.8"/>
<path d="M220.015 189.531C217.874 190.245 215.937 192.406 215.488 194.588C214.611 198.788 218.812 202.989 223.012 202.112C226.173 201.459 228.62 198.238 228.314 195.2C228.09 193.059 226.479 190.856 224.44 189.857C223.196 189.266 221.279 189.123 220.015 189.531Z" fill="#444559" fill-opacity="0.8"/>
<path d="M246.115 189.531C243.974 190.245 242.037 192.406 241.588 194.588C240.711 198.788 244.912 202.989 249.112 202.112C252.273 201.459 254.72 198.238 254.414 195.2C254.19 193.059 252.579 190.856 250.54 189.857C249.296 189.266 247.379 189.123 246.115 189.531Z" fill="#444559" fill-opacity="0.8"/>
<path d="M11.2148 215.631C9.07381 216.345 7.1367 218.506 6.68811 220.688C5.81131 224.888 10.0118 229.089 14.2122 228.212C17.3728 227.559 19.8197 224.338 19.5138 221.299C19.2895 219.158 17.6787 216.956 15.6396 215.957C14.3958 215.366 12.479 215.223 11.2148 215.631Z" fill="#444559" fill-opacity="0.8"/>
<path d="M37.3148 215.631C35.1738 216.345 33.2367 218.506 32.7881 220.688C31.9113 224.888 36.1118 229.089 40.3122 228.212C43.4728 227.559 45.9196 224.338 45.6138 221.299C45.3895 219.158 43.7786 216.956 41.7396 215.957C40.4957 215.366 38.579 215.223 37.3148 215.631Z" fill="#444559" fill-opacity="0.8"/>
<path d="M63.4148 215.631C61.2738 216.345 59.3367 218.506 58.8881 220.688C58.3783 223.074 59.5406 225.663 61.7836 227.192C63.9654 228.701 66.453 228.722 68.6552 227.254C72.2643 224.847 72.7537 220.362 69.7359 217.364C68.0027 215.611 65.515 214.938 63.4148 215.631Z" fill="#444559" fill-opacity="0.8"/>
<path d="M89.5149 215.631C87.3738 216.345 85.4367 218.506 84.9881 220.688C84.4784 223.074 85.6406 225.663 87.8836 227.192C90.0654 228.701 92.5531 228.722 94.7552 227.254C98.3644 224.847 98.8538 220.362 95.8359 217.364C94.1027 215.611 91.6151 214.938 89.5149 215.631Z" fill="#444559" fill-opacity="0.8"/>
<path d="M115.615 215.631C113.474 216.345 111.537 218.506 111.088 220.688C110.211 224.888 114.412 229.089 118.612 228.212C121.773 227.559 124.22 224.338 123.914 221.299C123.69 219.158 122.079 216.956 120.04 215.957C118.796 215.366 116.879 215.223 115.615 215.631Z" fill="#444559" fill-opacity="0.8"/>
<path d="M141.715 215.631C139.574 216.345 137.637 218.506 137.188 220.688C136.311 224.888 140.512 229.089 144.712 228.212C147.873 227.559 150.32 224.338 150.014 221.299C149.79 219.158 148.179 216.956 146.14 215.957C144.896 215.366 142.979 215.223 141.715 215.631Z" fill="#444559" fill-opacity="0.8"/>
<path d="M167.815 215.631C165.674 216.345 163.737 218.506 163.288 220.688C162.411 224.888 166.612 229.089 170.812 228.212C173.973 227.559 176.42 224.338 176.114 221.299C175.889 219.158 174.279 216.956 172.24 215.957C170.996 215.366 169.079 215.223 167.815 215.631Z" fill="#444559" fill-opacity="0.8"/>
<path d="M193.915 215.631C191.774 216.345 189.837 218.506 189.388 220.688C188.511 224.888 192.712 229.089 196.912 228.212C200.073 227.559 202.52 224.338 202.214 221.299C201.99 219.158 200.379 216.956 198.34 215.957C197.096 215.366 195.179 215.223 193.915 215.631Z" fill="#444559" fill-opacity="0.8"/>
<path d="M220.015 215.631C217.874 216.345 215.937 218.506 215.488 220.688C214.611 224.888 218.812 229.089 223.012 228.212C226.173 227.559 228.62 224.338 228.314 221.299C228.09 219.158 226.479 216.956 224.44 215.957C223.196 215.366 221.279 215.223 220.015 215.631Z" fill="#444559" fill-opacity="0.8"/>
<path d="M246.115 215.631C243.974 216.345 242.037 218.506 241.588 220.688C240.711 224.888 244.912 229.089 249.112 228.212C252.273 227.559 254.72 224.338 254.414 221.299C254.19 219.158 252.579 216.956 250.54 215.957C249.296 215.366 247.379 215.223 246.115 215.631Z" fill="#444559" fill-opacity="0.8"/>
<path d="M11.2148 241.731C9.07381 242.445 7.1367 244.606 6.68811 246.788C5.81131 250.988 10.0118 255.189 14.2122 254.312C17.3728 253.659 19.8197 250.438 19.5138 247.399C19.2895 245.258 17.6787 243.056 15.6396 242.057C14.3958 241.466 12.479 241.323 11.2148 241.731Z" fill="#444559" fill-opacity="0.8"/>
<path d="M37.3148 241.731C35.1738 242.445 33.2367 244.606 32.7881 246.788C31.9113 250.988 36.1118 255.189 40.3122 254.312C43.4728 253.659 45.9196 250.438 45.6138 247.399C45.3895 245.258 43.7786 243.056 41.7396 242.057C40.4957 241.466 38.579 241.323 37.3148 241.731Z" fill="#444559" fill-opacity="0.8"/>
<path d="M63.4148 241.731C61.2738 242.445 59.3367 244.606 58.8881 246.788C58.0113 250.988 62.2118 255.189 66.4123 254.312C69.5728 253.659 72.0197 250.438 71.7138 247.399C71.4895 245.258 69.8787 243.056 67.8396 242.057C66.5958 241.466 64.6791 241.323 63.4148 241.731Z" fill="#444559" fill-opacity="0.8"/>
<path d="M89.5148 241.731C87.3738 242.445 85.4367 244.606 84.9881 246.788C84.1113 250.988 88.3118 255.189 92.5122 254.312C95.6728 253.659 98.1197 250.438 97.8138 247.399C97.5895 245.258 95.9786 243.056 93.9396 242.057C92.6958 241.466 90.779 241.323 89.5148 241.731Z" fill="#444559" fill-opacity="0.8"/>
<path d="M115.615 241.731C113.474 242.445 111.537 244.606 111.088 246.788C110.211 250.988 114.412 255.189 118.612 254.312C121.773 253.659 124.22 250.438 123.914 247.399C123.69 245.258 122.079 243.056 120.04 242.057C118.796 241.466 116.879 241.323 115.615 241.731Z" fill="#444559" fill-opacity="0.8"/>
<path d="M141.715 241.731C139.574 242.445 137.637 244.606 137.188 246.788C136.311 250.988 140.512 255.189 144.712 254.312C147.873 253.659 150.32 250.438 150.014 247.399C149.79 245.258 148.179 243.056 146.14 242.057C144.896 241.466 142.979 241.323 141.715 241.731Z" fill="#444559" fill-opacity="0.8"/>
<path d="M167.815 241.731C165.674 242.445 163.737 244.606 163.288 246.788C162.411 250.988 166.612 255.189 170.812 254.312C173.973 253.659 176.42 250.438 176.114 247.399C175.889 245.258 174.279 243.056 172.24 242.057C170.996 241.466 169.079 241.323 167.815 241.731Z" fill="#444559" fill-opacity="0.8"/>
<path d="M193.915 241.731C191.774 242.445 189.837 244.606 189.388 246.788C188.511 250.988 192.712 255.189 196.912 254.312C200.073 253.659 202.52 250.438 202.214 247.399C201.99 245.258 200.379 243.056 198.34 242.057C197.096 241.466 195.179 241.323 193.915 241.731Z" fill="#444559" fill-opacity="0.8"/>
<path d="M220.015 241.731C217.874 242.445 215.937 244.606 215.488 246.788C214.611 250.988 218.812 255.189 223.012 254.312C226.173 253.659 228.62 250.438 228.314 247.399C228.09 245.258 226.479 243.056 224.44 242.057C223.196 241.466 221.279 241.323 220.015 241.731Z" fill="#444559" fill-opacity="0.8"/>
<path d="M246.115 241.731C243.974 242.445 242.037 244.606 241.588 246.788C240.711 250.988 244.912 255.189 249.112 254.312C252.273 253.659 254.72 250.438 254.414 247.399C254.19 245.258 252.579 243.056 250.54 242.057C249.296 241.466 247.379 241.323 246.115 241.731Z" fill="#444559" fill-opacity="0.8"/>
</svg>
